<svg width="22" height="21" viewBox="0 0 22 21" fill="none" xmlns="http://www.w3.org/2000/svg">
<path d="M7.08984 16.8516C7.08984 16.9375 7.00391 16.9805 6.875 16.9805C6.74609 17.0234 6.66016 16.9375 6.66016 16.8516C6.66016 16.7656 6.74609 16.6797 6.875 16.6797C7.00391 16.6797 7.08984 16.7656 7.08984 16.8516ZM5.75781 16.6367C5.80078 16.5508 5.92969 16.5078 6.05859 16.5508C6.1875 16.5938 6.23047 16.6797 6.23047 16.7656C6.1875 16.8516 6.05859 16.8945 5.97266 16.8516C5.84375 16.8516 5.75781 16.7227 5.75781 16.6367ZM7.69141 16.5938C7.77734 16.5508 7.90625 16.6367 7.90625 16.7227C7.94922 16.8086 7.86328 16.8516 7.73438 16.8945C7.60547 16.9375 7.47656 16.8945 7.47656 16.8086C7.47656 16.6797 7.5625 16.5938 7.69141 16.5938ZM10.4844 0.09375C16.457 0.09375 21.3125 4.64844 21.3125 10.5781C21.3125 15.3477 18.3906 19.4297 14.0938 20.8477C13.5352 20.9766 13.3203 20.6328 13.3203 20.332C13.3203 19.9883 13.3633 18.1836 13.3633 16.7656C13.3633 15.7344 13.0195 15.0898 12.6328 14.7461C15.0391 14.4883 17.5742 14.1445 17.5742 10.0195C17.5742 8.81641 17.1445 8.25781 16.457 7.48438C16.543 7.18359 16.9297 6.06641 16.3281 4.5625C15.4258 4.26172 13.3633 5.72266 13.3633 5.72266C12.5039 5.46484 11.6016 5.37891 10.6562 5.37891C9.75391 5.37891 8.85156 5.46484 7.99219 5.72266C7.99219 5.72266 5.88672 4.30469 5.02734 4.5625C4.42578 6.06641 4.76953 7.18359 4.89844 7.48438C4.21094 8.25781 3.86719 8.81641 3.86719 10.0195C3.86719 14.1445 6.31641 14.4883 8.72266 14.7461C8.37891 15.0469 8.12109 15.5195 8.03516 16.207C7.39062 16.5078 5.84375 16.9805 4.89844 15.3047C4.29688 14.2734 3.22266 14.1875 3.22266 14.1875C2.19141 14.1875 3.17969 14.875 3.17969 14.875C3.86719 15.1758 4.33984 16.4219 4.33984 16.4219C4.98438 18.3555 7.99219 17.7109 7.99219 17.7109C7.99219 18.6133 7.99219 20.0742 7.99219 20.375C7.99219 20.6328 7.82031 20.9766 7.26172 20.8906C2.96484 19.4297 0 15.3477 0 10.5781C0 4.64844 4.55469 0.09375 10.4844 0.09375ZM4.16797 14.918C4.21094 14.875 4.29688 14.918 4.38281 14.9609C4.46875 15.0469 4.46875 15.1758 4.42578 15.2188C4.33984 15.2617 4.25391 15.2188 4.16797 15.1758C4.125 15.0898 4.08203 14.9609 4.16797 14.918ZM3.69531 14.5742C3.73828 14.5312 3.78125 14.5312 3.86719 14.5742C3.95312 14.6172 3.99609 14.6602 3.99609 14.7031C3.95312 14.7891 3.86719 14.7891 3.78125 14.7461C3.69531 14.7031 3.65234 14.6602 3.69531 14.5742ZM5.07031 16.1211C5.15625 16.0352 5.28516 16.0781 5.37109 16.1641C5.45703 16.25 5.45703 16.3789 5.41406 16.4219C5.37109 16.5078 5.24219 16.4648 5.15625 16.3789C5.02734 16.293 5.02734 16.1641 5.07031 16.1211ZM4.59766 15.4766C4.68359 15.4336 4.76953 15.4766 4.85547 15.5625C4.89844 15.6484 4.89844 15.7773 4.85547 15.8203C4.76953 15.8633 4.68359 15.8203 4.59766 15.7344C4.51172 15.6484 4.51172 15.5195 4.59766 15.4766Z" fill="white"/>
</svg>
